<?xml version="1.0" encoding="UTF-8" standalone="no"?>
<!--
  - Copyright (c) 2024. Henry Yang
  -
  - This program is licensed under the GNU General Public License v3.0.
  -->

<!-- Created with Inkscape (http://www.inkscape.org/) -->

<svg
        xmlns:inkscape="http://www.inkscape.org/namespaces/inkscape"
        xmlns:sodipodi="http://sodipodi.sourceforge.net/DTD/sodipodi-0.dtd"
        width="200mm"
        height="268.31818mm"
        viewBox="0 0 200 268.31818"
        version="1.1"
        id="svg1"
        xml:space="preserve"
        inkscape:version="1.4 (e7c3feb1, 2024-10-09)"
        sodipodi:docname="XYBotLogo.svg"
        xmlns="http://www.w3.org/2000/svg"><sodipodi:namedview
     id="namedview1"
     pagecolor="#ffffff"
     bordercolor="#111111"
     borderopacity="1"
     inkscape:showpageshadow="0"
     inkscape:pageopacity="0"
     inkscape:pagecheckerboard="1"
     inkscape:deskcolor="#d1d1d1"
     inkscape:document-units="mm"
     inkscape:zoom="0.52091914"
     inkscape:cx="182.36996"
     inkscape:cy="521.19414"
     inkscape:window-width="1440"
     inkscape:window-height="824"
     inkscape:window-x="0"
     inkscape:window-y="25"
     inkscape:window-maximized="0"
     inkscape:current-layer="svg1" /><defs
     id="defs1" /><g
     id="g90"
     inkscape:label="Main"
     transform="matrix(1.3313442,0,0,1.3313442,-67.631843,-10.656021)"><path
       d="m 184.61853,140.58947 c 0.27102,3.66094 0.27761,12.29496 -5.58222,13.3108 -2.61588,0.45348 -4.28223,0.64496 -5.36094,0.70616 1.7167,2.24256 4.4482,3.70438 7.55273,3.70454 5.23195,6e-5 9.4733,-4.11597 9.47333,-9.19337 0,-3.90911 -2.53756,-7.20001 -6.0829,-8.52813 z"
       style="fill:#fb3f6a;stroke-width:0.32296"
       id="path90" /><path
       d="m 184.36439,140.48059 0.13717,4.51833 c 0.1035,0.0529 0.002,0.0686 0.002,0.0686 l -0.002,-0.0686 c -0.15053,-0.0769 -0.73914,-0.23317 -2.73989,-0.54064 -3.29729,-0.50673 -3.48515,0.46625 -3.49221,0.51232 l 0.001,0.0183 c 0,0 -0.32274,0.0817 -2.09065,1.74025 -1.76791,1.65853 -1.56403,4.53532 -1.56403,4.53532 l -2.80881,-1.64772 c 0.10509,1.86791 0.78926,3.58042 1.86812,4.98974 1.07871,-0.0613 2.74507,-0.25269 5.36094,-0.70617 5.85984,-1.01584 5.85324,-9.64986 5.58222,-13.31079 -0.0869,-0.0325 -0.16614,-0.0788 -0.25414,-0.10888 z"
       style="fill:#fe7361;stroke-width:0.32296"
       id="path89" /><path
       d="m 181.2281,139.92422 c -1.12512,6e-5 -2.18886,0.22335 -3.19001,0.57273 l 0.23137,4.47365 c 0.007,-0.046 0.19492,-1.01905 3.49221,-0.51232 2.00075,0.30747 2.58936,0.46379 2.73989,0.54064 l -0.13717,-4.51833 c -0.98619,-0.33762 -2.03104,-0.55638 -3.13629,-0.55637 z m 3.27346,5.0747 0.002,0.0686 c 0,0 0.10154,-0.0158 -0.002,-0.0686 z"
       style="fill:#eda65a;stroke-width:0.32296"
       id="path88" /><path
       d="m 178.03809,140.49695 c -3.6541,1.27522 -6.28267,4.63536 -6.28268,8.62065 0,0.17095 0.0423,0.33045 0.0519,0.49909 l 2.8088,1.64773 c 0,0 -0.20387,-2.8768 1.56404,-4.53532 1.76791,-1.65852 2.09064,-1.74025 2.09064,-1.74025 z"
       style="fill:#f4fcfe;stroke-width:0.32296"
       id="path87" /><path
       d="m 73.647546,140.3245 c 0.274508,3.63075 0.308252,12.34243 -5.579052,13.36303 -2.526967,0.43808 -4.166519,0.63116 -5.248419,0.69925 1.716006,2.23993 4.447333,3.69702 7.54958,3.69698 5.231698,-2.8e-4 9.472682,-4.1162 9.472694,-9.19338 -1.6e-5,-3.94957 -2.591268,-7.2663 -6.194803,-8.56588 z"
       style="fill:#fb3f6a;stroke-width:0.32296"
       id="path86" /><path
       d="m 73.395303,140.22003 0.139081,4.56615 c 0.103716,0.0529 0.0018,0.0686 0.0018,0.0686 l -0.0018,-0.0686 c -0.150758,-0.0769 -0.739747,-0.23325 -2.739899,-0.54063 -3.297293,-0.50673 -3.485144,0.46624 -3.492203,0.51232 l 0.0012,0.0183 c 0,0 -0.323365,0.0817 -2.091275,1.74023 -1.76791,1.65853 -1.564032,4.53596 -1.564032,4.53596 l -2.691221,-1.57912 c 0.120807,1.83756 0.798806,3.52439 1.863055,4.91358 1.0819,-0.0681 2.721452,-0.26117 5.248419,-0.69925 5.887304,-1.0206 5.85356,-9.73227 5.579052,-13.36303 -0.08614,-0.031 -0.164964,-0.0757 -0.252242,-0.10449 z"
       style="fill:#fe7361;stroke-width:0.32296"
       id="path85" /><path
       d="m 70.369655,139.69701 c -1.164517,-1e-5 -2.266966,0.2318 -3.297489,0.60484 l 0.230116,4.45602 c 0.0071,-0.046 0.19491,-1.01905 3.492203,-0.51232 2.000152,0.30738 2.589141,0.46376 2.739899,0.54063 l -0.139081,-4.56615 c -0.955192,-0.31435 -1.961012,-0.52297 -3.025648,-0.52302 z m 3.164729,5.08917 0.0018,0.0686 c 0,0 0.10182,-0.0157 -0.0018,-0.0686 z"
       style="fill:#eda65a;stroke-width:0.32296"
       id="path84" /><path
       d="m 67.072166,140.30185 c -3.599408,1.30293 -6.175821,4.64125 -6.175836,8.58853 0,0.19964 0.04777,0.38634 0.06069,0.58282 l 2.691221,1.57911 c 0,0 -0.203878,-2.87742 1.564032,-4.53595 1.767909,-1.65851 2.091274,-1.74024 2.091274,-1.74024 z"
       style="fill:#f4fcfe;stroke-width:0.32296"
       id="path83" /><path
       d="m 126.51799,39.996679 c 0.11659,0.927653 0.25467,1.958282 0.41788,3.0632 0.19524,1.321813 0.58916,2.477365 1.04436,3.455306 h 28.56792 c 0.45815,-0.210592 1.30728,-0.448331 2.99467,-0.402805 0.41309,0.01096 0.87341,0.03946 1.38576,0.09001 8.80579,0.867724 10.48954,1.563599 12.97311,2.854874 -1.56749,-5.239527 -6.33333,-9.06058 -12.07035,-9.06058 z"
       style="fill:#fd8c49;stroke-width:0.32296"
       id="path82" /><path
       d="m 159.54282,46.11238 c -1.68739,-0.04555 -2.53652,0.192213 -2.99467,0.402805 h 0.59931 c 5.58949,0 10.08971,4.479614 10.08971,10.044301 v 32.561056 c 0,5.56469 -4.50022,10.04493 -10.08971,10.04493 H 91.676894 c -0.175536,0 -0.338791,-0.0423 -0.512072,-0.051 -0.955382,0.24982 -2.067142,0.58761 -3.178006,1.094498 -0.944132,0.4308 -2.077282,1.2293 -3.14197,2.07002 2.98261,2.12133 6.618414,3.38104 10.568907,3.38104 h 60.747497 c 9.91585,0 17.92278,-7.839478 18.29866,-17.710158 -0.0314,-0.0169 -0.0629,-0.0339 -0.0942,-0.051 l 0.1296,-35.173618 c 0,-1.285437 -0.24419,-2.500015 -0.59362,-3.668032 -2.48357,-1.291275 -4.16732,-1.98715 -12.97311,-2.854875 -0.51235,-0.05054 -0.97267,-0.0788 -1.38576,-0.09001 z"
       style="fill:#fc3d6a;stroke-width:0.32296"
       id="path81" /><path
       d="m 183.09053,64.907601 v 13.594641 l 7.21009,-3.143763 c 0.38622,-1.172888 0.6008,-2.449654 0.60501,-3.783212 -4.2e-4,-1.475531 -0.27714,-2.869523 -0.74093,-4.14384 -0.56075,-0.04628 -1.29576,-0.04531 -1.82576,0.194478 -0.96421,0.436335 -1.53431,1.309114 -1.53431,1.309114 0,0 -0.2793,-0.96539 -1.24352,-2.31802 -0.87492,-1.227367 -2.21832,-1.639855 -2.47058,-1.709398 z"
       style="fill:#15c4be;stroke-width:0.32296"
       id="path80" /><path
       d="m 190.30062,75.358479 -7.21009,3.143763 v 3.3074 c 3.30572,-0.32014 6.04422,-2.91062 7.21009,-6.451163 z"
       style="fill:#279eb3;stroke-width:0.32296"
       id="path79" /><path
       d="m 60.867249,72.013319 c 0.160575,3.017696 1.367861,5.702293 3.233005,7.465723 l 0.170692,0.15923 c 1.213148,1.08799 2.672559,1.80355 4.273584,1.97878 v -3.88706 C 68.086921,77.510375 66.079341,76.472761 64.85635,74.674978 63.675107,73.941701 62.630962,73.238761 62.069036,72.730191 61.747499,72.43918 61.332004,72.204485 60.867249,72.013319 Z"
       style="fill:#328fa9;stroke-width:0.32296"
       id="path78" /><path
       d="m 91.676894,46.515185 c -5.589497,0 -10.089709,4.479614 -10.089709,10.044301 v 32.561056 c 0,5.56469 4.500212,10.04493 10.089709,10.04493 h 65.470566 c 5.58949,0 10.08971,-4.48024 10.08971,-10.04493 V 56.559486 c 0,-5.564687 -4.50022,-10.044301 -10.08971,-10.044301 z m 62.089626,13.000504 c 5.27445,-2.44e-4 9.5504,4.090178 9.55045,9.136101 -5e-5,5.045935 -4.276,9.136362 -9.55045,9.136102 -5.2742,-7e-5 -9.54976,-4.09041 -9.54982,-9.136102 6e-5,-5.045679 4.27562,-9.136016 9.54982,-9.136101 z m -54.999015,0.0749 c 5.274205,7.3e-5 9.549755,4.090409 9.549815,9.136101 -6e-5,5.045691 -4.27561,9.136022 -9.549815,9.136102 -5.274452,2.6e-4 -9.550396,-4.090179 -9.550452,-9.136102 5.6e-5,-5.045923 4.276,-9.136357 9.550452,-9.136101 z m 38.801755,18.879563 c 1.35784,0.0139 2.28696,0.55196 2.91438,1.31855 0.71703,0.87611 1.82519,1.45996 1.46667,3.69887 -0.35852,2.23893 -5.44334,9.50738 -15.80784,9.57227 -10.36451,0.0649 -16.34379,-7.05412 -16.47416,-10.26647 -0.13038,-3.21237 2.38714,-4.26907 5.55123,-4.25525 3.16409,0.0139 3.31786,6.33627 10.8142,6.07668 7.49634,-0.25958 9.23189,-5.95535 10.92672,-6.11759 0.21185,-0.0202 0.41481,-0.029 0.6088,-0.027 z"
       style="fill:#ff7062;stroke-width:0.328566"
       id="path77" /><path
       d="m 68.54453,65.217259 c -1.543088,0.760803 -3.948137,2.407879 -4.551115,5.484437 -0.836056,4.265768 3.82306,6.678884 4.551115,7.028296 z"
       style="fill:#33c3c1;stroke-width:0.32296"
       id="path76" /><path
       d="m 164.49601,177.72991 0.0455,3.5881 c 0,0 -2.85839,-0.48749 -6.12527,1.46395 -3.26689,1.95142 -3.58387,6.38066 -3.58387,6.38066 v 11.52524 h 9.87349 l 0.11194,-16.19903 9.16861,0.11145 c -1.35111,-3.67525 -5.0342,-6.38123 -9.49039,-6.87033 z"
       style="fill:#fd6564;stroke-width:0.32296"
       id="path75" /><path
       d="m 164.81779,184.48883 -0.11194,16.19903 h 9.81914 v -13.86213 c -0.0738,-0.77583 -0.27644,-1.5123 -0.53863,-2.22549 z"
       style="fill:#fd3b6d;stroke-width:0.32296"
       id="path74" /><path
       d="m 90.718498,177.88851 0.04678,3.69258 c 0,0 -2.858386,-0.4875 -6.125263,1.46394 -3.266889,1.95142 -3.583237,6.38067 -3.583237,6.38067 l -6.32e-4,11.26216 h 9.874764 l 0.110629,-15.93594 8.481423,0.10316 c -1.218064,-3.55137 -4.602448,-6.25732 -8.804472,-6.96663 z"
       style="fill:#fd6564;stroke-width:0.32296"
       id="path73" /><path
       d="m 91.041546,184.75192 -0.110628,15.93594 h 9.115512 v -12.96967 -0.37826 h -0.01 c -0.03757,-0.86715 -0.241033,-1.68901 -0.513972,-2.48479 z"
       style="fill:#fd3b6d;stroke-width:0.32296"
       id="path72" /><path
       d="m 173.51858,117.16703 -92.318294,4.55737 0.09799,12.92497 c 4.413269,3.3329 7.141173,8.55146 7.141819,14.24101 -0.01286,5.58605 -2.647105,10.72163 -6.927507,14.05284 l 0.06069,8.00259 c 2.184199,-0.84748 4.497265,-1.3456 6.866187,-1.36073 10.368363,-5e-5 18.814645,8.15389 19.373375,18.41444 l 36.9684,-5.63674 c 2.7126,-7.50278 9.86457,-12.82189 18.21585,-12.84126 2.57039,3e-4 5.07653,0.56846 7.42251,1.54512 l 1.75179,-6.61039 c -5.37338,-3.19037 -8.76081,-8.98595 -8.77413,-15.34054 0.011,-5.44074 2.49637,-10.4724 6.58297,-13.8099 z m -53.86235,18.63411 c 0.4288,0 0.79067,0.14955 1.08546,0.44938 0.29481,0.29983 0.4419,0.68148 0.4419,1.14484 0,0.24532 -0.067,0.54505 -0.20103,0.89939 -1.12561,1.88071 -2.30492,3.62516 -3.53772,5.2333 -1.206,1.60814 -2.49207,3.27068 -3.85887,4.98786 1.34,1.68991 2.66642,3.4207 3.97962,5.19239 1.34,1.74443 2.50565,3.5708 3.49726,5.47877 0.0804,0.24532 0.12074,0.49044 0.12074,0.73575 0,0.49062 -0.14709,0.88593 -0.4419,1.18575 -0.29479,0.29983 -0.65666,0.45001 -1.08546,0.45001 -0.50921,0 -0.97845,-0.21844 -1.40725,-0.65456 -0.91119,-1.74444 -1.96947,-3.42061 -3.17547,-5.02876 -1.17921,-1.60814 -2.38521,-3.18876 -3.61801,-4.74238 -1.3668,1.68991 -2.76088,3.35244 -4.18129,4.98784 -1.3936,1.63541 -2.78705,3.28427 -4.18065,4.94694 -0.402,0.24532 -0.79055,0.36819 -1.16575,0.36819 -0.4556,0 -0.83113,-0.13653 -1.12593,-0.4091 -0.268,-0.29983 -0.40143,-0.68148 -0.40143,-1.14484 0,-0.3816 0.12041,-0.77627 0.36161,-1.18513 1.4472,-1.71717 2.88099,-3.40764 4.30139,-5.07029 1.44721,-1.68993 2.881,-3.40706 4.30141,-5.15149 -1.28641,-1.71717 -2.59979,-3.3524 -3.9398,-4.90604 -1.3132,-1.58089 -2.77368,-3.08021 -4.38168,-4.49756 -0.2412,-0.21804 -0.41562,-0.44952 -0.52282,-0.69483 -0.0804,-0.27257 -0.12012,-0.5177 -0.12012,-0.73575 0,-0.43611 0.13344,-0.80411 0.40144,-1.10394 0.2948,-0.29983 0.67032,-0.45 1.12592,-0.45 0.4556,0 0.87084,0.15017 1.24604,0.45 1.5812,1.41735 3.04169,2.90302 4.38169,4.45665 1.34,1.52638 2.65339,3.13429 3.93979,4.82422 1.2328,-1.5809 2.42578,-3.12118 3.57818,-4.6203 1.1524,-1.49911 2.23736,-3.12068 3.25577,-4.86511 0.4288,-0.35434 0.87136,-0.5312 1.32696,-0.5312 z m 31.95895,0.16301 c 0.40201,0 0.76388,0.15017 1.08548,0.45 0.3216,0.29983 0.48235,0.69514 0.48235,1.18576 0,0.24532 -0.067,0.54505 -0.20103,0.89938 -1.0988,2.04427 -2.39853,3.97923 -3.89933,5.80542 -1.5008,1.79894 -2.97495,3.59801 -4.42215,5.39695 l -0.16058,0.16364 v 4.90603 c 0,1.60815 0.0131,3.23034 0.0399,4.86574 -0.0268,0.62692 -0.21423,1.1035 -0.56265,1.43059 -0.32159,0.29982 -0.68346,0.45001 -1.08547,0.45001 -0.37519,0 -0.72339,-0.13653 -1.045,-0.4091 -0.3216,-0.29982 -0.52271,-0.74974 -0.6031,-1.34939 0,-1.66265 -0.0137,-3.31153 -0.0405,-4.94694 v -5.02876 c -1.66161,-1.6354 -3.18913,-3.37985 -4.58273,-5.23331 -1.36681,-1.88071 -2.39838,-3.96586 -3.09519,-6.25542 0,-0.0546 -0.0137,-0.10912 -0.0405,-0.16364 v -0.20455 c 0,-0.57239 0.14773,-1.00803 0.44253,-1.30786 0.3216,-0.32707 0.68346,-0.49091 1.08546,-0.49091 0.61639,0 1.13902,0.31339 1.56783,0.94029 0.5896,1.93523 1.43373,3.69333 2.53254,5.27422 1.0988,1.55363 2.33149,3.02564 3.69829,4.41575 1.28641,-1.55364 2.5731,-3.10758 3.85951,-4.66121 1.3132,-1.58089 2.43852,-3.27072 3.37651,-5.06967 0.21441,-0.38159 0.45585,-0.65401 0.72385,-0.81756 0.2948,-0.16354 0.57598,-0.24546 0.84397,-0.24546 z"
       style="fill:#0ec4bf;stroke-width:0.32296"
       id="path71" /><path
       d="m 174.52503,117.03361 -1.00519,0.12525 -3.53961,18.14695 c 1.35075,-1.10314 2.87505,-2.02282 4.5448,-2.70885 z m -2.35364,47.42264 -1.75179,6.61039 c 1.44072,0.59979 2.83496,1.31847 4.10543,2.25823 v -7.68979 c -0.82144,-0.3375 -1.60556,-0.73466 -2.35364,-1.17883 z m -27.39015,17.90653 -36.9684,5.63674 c 0.0195,0.35761 0.0544,0.71125 0.0544,1.07373 -0.008,0.13311 -0.0175,0.26612 -0.0284,0.39903 v 11.21558 h 35.74259 v -11.5095 c -0.004,-0.0563 -0.009,-0.11242 -0.0126,-0.16868 0.004,-0.0563 0.007,-0.11253 0.0126,-0.16867 v -0.79869 h 0.0569 c 0.0986,-1.9899 0.49785,-3.89514 1.14299,-5.67954 z"
       style="fill:#00a0b8;stroke-width:0.32296"
       id="path70" /><path
       d="m 155.38303,8.0039567 c -3.81205,-1.13e-4 -6.90234,3.1356463 -6.90222,7.0037573 0.007,2.188603 1.02171,4.248096 2.74306,5.566881 V 31.767516 H 100.13998 V 20.811242 c 1.85208,-1.305467 2.95885,-3.446687 2.96433,-5.734924 1.3e-4,-3.867863 -3.08979,-7.0035213 -6.901589,-7.0037593 -3.812047,-1.14e-4 -6.902347,3.1356463 -6.902219,7.0037593 0.0069,2.188601 1.021712,4.248095 2.74306,5.566879 v 11.124319 h -3.604099 c -11.021766,0 -19.894933,8.833791 -19.894933,19.806639 v 1.681082 c -9.057424,0.285457 -16.270779,8.547148 -16.283878,18.650466 0.01278,10.111779 7.23754,18.377469 16.302844,18.651719 0.197983,8.9296 6.269735,16.350968 14.542835,18.625278 H 72.838978 c -2.463871,0 -4.447437,1.97476 -4.447437,4.4277 v 17.51506 c -9.069253,1.03937 -15.918942,8.67631 -15.933647,17.76492 0.01471,9.08862 6.864394,16.72556 15.933647,17.76493 v 34.03255 H 55.247105 c -2.463871,0 -4.447437,1.97476 -4.447437,4.4277 0,2.45293 1.983566,4.42769 4.447437,4.42769 H 196.57634 c 2.46388,0 4.44744,-1.97476 4.44744,-4.42769 0,-2.45294 -1.98356,-4.4277 -4.44744,-4.4277 h -13.73743 v -33.76381 c 9.32609,-0.75101 16.51724,-8.49334 16.54056,-17.80834 -0.002,-9.33024 -7.19924,-17.09574 -16.54056,-17.84801 v -17.6573 c 0,-2.45294 -1.98356,-4.4277 -4.44743,-4.4277 h -9.86275 c 8.34366,-2.2937 14.45483,-9.820988 14.55294,-18.852488 9.04948,-0.30885 16.24259,-8.57671 16.24469,-18.671858 -0.0144,-10.08142 -7.19879,-18.332319 -16.23583,-18.646057 v -1.438142 c 0,-10.972848 -8.87317,-19.806639 -19.89494,-19.806639 h -3.8753 V 20.742639 c 1.85208,-1.305466 2.95885,-3.446686 2.96433,-5.734925 1.2e-4,-3.867864 -3.0898,-7.0035213 -6.90159,-7.0037573 z M 89.743664,39.996679 h 72.087676 c 7.01594,0 12.66397,5.676894 12.66397,12.728613 l -0.1296,35.17362 c 0.0313,0.0172 0.0628,0.0341 0.0942,0.051 -0.37588,9.87068 -8.38281,17.710158 -18.29866,17.710158 H 95.413753 c -9.918612,0 -17.926957,-7.843788 -18.29866,-17.718348 l -0.0354,-35.216411 c 0,-7.05172 5.648029,-12.728613 12.663974,-12.728613 z M 68.54453,61.166565 v 20.450487 c -4.363376,-0.47758 -7.710937,-4.906832 -7.727856,-10.224925 0.01665,-5.318336 3.364281,-9.747951 7.727856,-10.225562 z m 114.546,0.138455 c 4.41212,0.427334 7.81361,4.897408 7.8151,10.270247 -0.0169,5.35904 -3.41427,9.808175 -7.8151,10.234375 z M 77.230783,116.45269 h 97.294247 v 16.14427 c -6.72146,2.76159 -11.11234,9.27969 -11.12777,16.51875 0.0152,7.23928 4.4061,13.7577 11.12777,16.51937 v 7.68979 c -3.33921,-2.47002 -7.37901,-3.80286 -11.52794,-3.80335 -10.33748,0.024 -18.84585,8.164 -19.35884,18.5208 h -0.0569 v 0.79869 c -0.005,0.0561 -0.009,0.11242 -0.0126,0.16867 0.004,0.0563 0.009,0.11242 0.0126,0.16868 v 11.5095 h -35.7426 v -11.21558 c 0.0109,-0.13291 0.0203,-0.26592 0.0284,-0.39903 1.3e-4,-10.76301 -8.698017,-19.48822 -19.427742,-19.48817 -4.023782,0.0257 -7.940323,1.30412 -11.20868,3.65859 v -7.80432 c 6.763645,-2.7404 11.192572,-9.27909 11.209311,-16.54897 -8.28e-4,-7.28411 -4.432464,-13.84221 -11.209311,-16.58798 z m -6.861128,23.24432 c 5.231694,2.8e-4 9.472674,4.11621 9.472694,9.19337 -1.2e-5,5.07718 -4.240996,9.1931 -9.472694,9.19338 -5.231945,6e-5 -9.473313,-4.11596 -9.473325,-9.19338 2e-5,-5.0774 4.241385,-9.19343 9.473325,-9.19337 z m 110.858445,0.22721 c 5.23195,-6e-5 9.47331,4.11597 9.47333,9.19338 -3e-5,5.0774 -4.24138,9.19343 -9.47333,9.19337 -5.23169,-2.7e-4 -9.47267,-4.1162 -9.47269,-9.19337 10e-6,-5.07718 4.241,-9.19311 9.47269,-9.19338 z m -18.12354,37.7031 h 6.4e-4 c 5.96692,0.0183 10.92654,4.01314 11.41983,9.19841 v 13.86213 h -22.91995 v -13.03323 -0.37826 h 0.031 c 0.23294,-5.37921 5.29518,-9.63834 11.46851,-9.64905 z m -74.557625,0.0636 h 6.31e-4 c 6.18141,9.4e-4 11.256117,4.26279 11.489374,9.64904 h 0.01 v 0.37827 12.96966 H 77.230783 v -14.33607 c 0.77892,-4.93831 5.599659,-8.62791 11.316152,-8.66091 z"
       style="fill:#063057;stroke-width:0.32296"
       id="path69" /><path
       d="m 98.767505,59.590592 c -5.274452,-2.56e-4 -9.550396,4.090178 -9.550452,9.136101 5.6e-5,5.045923 4.276,9.136359 9.550452,9.136099 5.274205,-8e-5 9.549755,-4.090408 9.549815,-9.136099 -6e-5,-5.045692 -4.27561,-9.136028 -9.549815,-9.136101 z m -1.531157,3.458451 c 1.48554,-1.95e-4 2.689922,1.160807 2.689956,2.593053 -3.4e-5,1.432247 -1.204416,2.593236 -2.689956,2.593053 -1.485294,-1.58e-4 -2.68929,-1.16105 -2.689324,-2.593053 3.4e-5,-1.432015 1.20403,-2.592907 2.689324,-2.593053 z m 5.505082,4.561127 c 1.48554,-1.83e-4 2.68992,1.160807 2.68996,2.593053 -4e-5,1.432246 -1.20442,2.593236 -2.68996,2.593053 -1.48529,-1.58e-4 -2.68929,-1.16105 -2.68932,-2.593053 3e-5,-1.432015 1.20403,-2.592907 2.68932,-2.593053 z"
       style="fill:#033358;stroke-width:0.32296"
       id="path68" /><path
       d="m 97.236348,63.049043 c -1.485294,1.46e-4 -2.68929,1.161038 -2.689324,2.593053 3.4e-5,1.432003 1.20403,2.592895 2.689324,2.593053 1.48554,1.83e-4 2.689922,-1.160806 2.689956,-2.593053 -3.4e-5,-1.432246 -1.204416,-2.593248 -2.689956,-2.593053 z"
       style="fill:#f3fdff;stroke-width:0.32296"
       id="path67" /><path
       d="m 102.74143,67.61017 c -1.48529,1.46e-4 -2.68929,1.161038 -2.68932,2.593053 3e-5,1.432003 1.20403,2.592895 2.68932,2.593053 1.48554,1.83e-4 2.68992,-1.160807 2.68996,-2.593053 -4e-5,-1.432246 -1.20442,-2.593236 -2.68996,-2.593053 z"
       style="fill:#f3fdff;stroke-width:0.32296"
       id="path66" /><path
       d="m 153.76652,59.515689 c -5.2742,8.5e-5 -9.54976,4.090422 -9.54982,9.136101 6e-5,5.045692 4.27562,9.136032 9.54982,9.136102 5.27445,2.6e-4 9.5504,-4.090167 9.55045,-9.136102 -5e-5,-5.045923 -4.276,-9.136345 -9.55045,-9.136101 z m -1.53052,3.458452 c 1.48529,1.58e-4 2.68928,1.16105 2.68932,2.593053 -4e-5,1.432015 -1.20403,2.592907 -2.68932,2.593053 -1.48555,1.83e-4 -2.68993,-1.160807 -2.68995,-2.593053 2e-5,-1.432247 1.2044,-2.593236 2.68995,-2.593053 z m 5.50508,4.561126 c 1.48529,1.59e-4 2.6893,1.161051 2.68933,2.593053 -3e-5,1.432015 -1.20404,2.592907 -2.68933,2.593054 -1.48529,-1.47e-4 -2.68929,-1.161039 -2.68932,-2.593054 3e-5,-1.432002 1.20403,-2.592894 2.68932,-2.593053 z"
       style="fill:#033358;stroke-width:0.32296"
       id="path65" /><path
       d="m 152.236,62.974141 c -1.48555,-1.83e-4 -2.68993,1.160806 -2.68995,2.593053 2e-5,1.432246 1.2044,2.593236 2.68995,2.593053 1.48529,-1.46e-4 2.68928,-1.161038 2.68932,-2.593053 -4e-5,-1.432003 -1.20403,-2.592895 -2.68932,-2.593053 z"
       style="fill:#f3fdff;stroke-width:0.32296"
       id="path64" /><path
       d="m 157.74108,67.535267 c -1.48529,1.59e-4 -2.68929,1.161051 -2.68932,2.593053 3e-5,1.432015 1.20403,2.592907 2.68932,2.593054 1.48529,-1.47e-4 2.6893,-1.161039 2.68933,-2.593054 -3e-5,-1.432002 -1.20404,-2.592894 -2.68933,-2.593053 z"
       style="fill:#f3fdff;stroke-width:0.32296"
       id="path63" /><path
       d="m 137.56926,78.470152 c -0.19399,-0.002 -0.39695,0.007 -0.6088,0.027 -1.69483,0.16224 -3.43038,5.85801 -10.92672,6.11759 -7.49634,0.25958 -7.65011,-6.0628 -10.8142,-6.07668 -3.16409,-0.0138 -5.68161,1.04287 -5.55123,4.25524 0.13037,3.21236 6.10965,10.33139 16.47416,10.26647 10.3645,-0.0649 15.44932,-7.33333 15.80784,-9.57226 0.35852,-2.23892 -0.74964,-2.82277 -1.46667,-3.69887 -0.62742,-0.76659 -1.55654,-1.30471 -2.91438,-1.31856 z"
       style="fill:#033358;stroke-width:0.32296"
       id="path62" /><path
       d="m 119.65623,135.80114 c -0.4556,0 -0.89816,0.17686 -1.32696,0.5312 -1.01841,1.74443 -2.10337,3.366 -3.25576,4.86511 -1.15241,1.49912 -2.34538,3.0394 -3.57818,4.6203 -1.28641,-1.68993 -2.59979,-3.29784 -3.93979,-4.82422 -1.34001,-1.55363 -2.80049,-3.0393 -4.38169,-4.45665 -0.3752,-0.29983 -0.79044,-0.45 -1.24604,-0.45 -0.4556,0 -0.83113,0.15017 -1.12593,0.45 -0.268,0.29983 -0.40143,0.66783 -0.40143,1.10394 0,0.21805 0.0397,0.46318 0.12012,0.73575 0.1072,0.24531 0.28162,0.47679 0.52282,0.69483 1.608,1.41735 3.06848,2.91667 4.38168,4.49756 1.34,1.55364 2.65339,3.18887 3.93979,4.90604 -1.4204,1.74443 -2.8542,3.46156 -4.3014,5.15149 -1.4204,1.66265 -2.85419,3.35312 -4.3014,5.07029 -0.2412,0.40886 -0.36161,0.80353 -0.36161,1.18513 0,0.46336 0.13344,0.84501 0.40144,1.14484 0.2948,0.27257 0.67032,0.4091 1.12593,0.4091 0.3752,0 0.76375,-0.12287 1.16575,-0.36819 1.3936,-1.66267 2.78705,-3.31153 4.18065,-4.94694 1.4204,-1.6354 2.81448,-3.29793 4.18128,-4.98784 1.23281,1.55362 2.43881,3.13424 3.61801,4.74238 1.206,1.60815 2.26429,3.28432 3.17548,5.02876 0.4288,0.43612 0.89804,0.65456 1.40725,0.65456 0.4288,0 0.79067,-0.15018 1.08546,-0.45001 0.29481,-0.29982 0.4419,-0.69513 0.4419,-1.18575 0,-0.24531 -0.0404,-0.49043 -0.12074,-0.73575 -0.9916,-1.90797 -2.15726,-3.73434 -3.49726,-5.47877 -1.31321,-1.77169 -2.63962,-3.50248 -3.97962,-5.19239 1.3668,-1.71718 2.65286,-3.37972 3.85887,-4.98786 1.23281,-1.60814 2.41211,-3.35259 3.53772,-5.2333 0.13401,-0.35434 0.20103,-0.65407 0.20103,-0.89939 0,-0.46336 -0.14709,-0.84501 -0.4419,-1.14484 -0.29479,-0.29983 -0.65666,-0.44938 -1.08546,-0.44938 z m 31.95895,0.16301 c -0.26798,0 -0.54916,0.082 -0.84397,0.24546 -0.268,0.16355 -0.50944,0.43597 -0.72384,0.81756 -0.938,1.79895 -2.06332,3.48878 -3.37652,5.06967 -1.28641,1.55363 -2.5731,3.10757 -3.85951,4.66121 -1.36679,-1.39011 -2.59948,-2.86212 -3.69829,-4.41575 -1.09881,-1.58089 -1.94293,-3.33899 -2.53253,-5.27422 -0.42881,-0.6269 -0.95144,-0.94029 -1.56783,-0.94029 -0.40201,0 -0.76387,0.16384 -1.08546,0.49091 -0.29481,0.29983 -0.44254,0.73547 -0.44254,1.30786 v 0.20455 c 0.0268,0.0546 0.0405,0.10913 0.0405,0.16364 0.69682,2.28956 1.72839,4.37471 3.0952,6.25542 1.39359,1.85346 2.92111,3.59791 4.58273,5.23331 v 5.02876 c 0.0268,1.63541 0.0405,3.28429 0.0405,4.94694 0.0804,0.59965 0.28151,1.04957 0.6031,1.34939 0.32161,0.27257 0.66982,0.4091 1.04501,0.4091 0.402,0 0.76387,-0.15019 1.08547,-0.45001 0.34841,-0.32709 0.53585,-0.80367 0.56265,-1.43059 -0.0268,-1.6354 -0.0399,-3.25759 -0.0399,-4.86574 v -4.90603 l 0.16058,-0.16364 c 1.44721,-1.79894 2.92135,-3.59801 4.42216,-5.39695 1.5008,-1.82619 2.80053,-3.76115 3.89932,-5.80542 0.13401,-0.35433 0.20104,-0.65406 0.20104,-0.89938 0,-0.49062 -0.16075,-0.88593 -0.48236,-1.18576 -0.3216,-0.29983 -0.68346,-0.45 -1.08547,-0.45 z"
       style="-inkscape-font-specification:'Chalkboard SE';fill:#ffffff;stroke-width:0.275172"
       id="path61" /></g></svg>
